<svg id="arrow-left" xmlns="http://www.w3.org/2000/svg" xmlns:xlink="http://www.w3.org/1999/xlink" width="205.08" height="147.08" viewBox="0 0 205.08 147.08"><defs><style>.cls-1{fill:none;}.cls-2{clip-path:url(#clip-path);}.cls-3{fill:#1b1464;transition:1s;}.cls-4{fill:#1b1464;}.cls-5{clip-path:url(#clip-path-2);}.cls-6{clip-path:url(#clip-path-3);}#arrow-left:hover .cls-3{fill:#FFF;}@media screen and (min-width: 50px) {
    	.cls-3{fill:#2465b2;}
  	}</style><clipPath id="clip-path" transform="translate(-2.46 -9.46)"><rect id="clip_mask" data-name="clip mask" class="cls-1" x="58" y="36" width="76" height="89" transform="translate(192 161) rotate(-180)"/></clipPath><clipPath id="clip-path-2" transform="translate(-2.46 -9.46)"><rect id="clip_mask-2" data-name="clip mask" class="cls-1" x="34" y="17" width="76" height="127" transform="translate(144 161) rotate(-180)"/></clipPath><clipPath id="clip-path-3" transform="translate(-2.46 -9.46)"><rect id="clip_mask-3" data-name="clip mask" class="cls-1" width="76" height="161" transform="translate(76 161) rotate(-180)"/></clipPath></defs><title>arrow-left</title><g id="arrow_head" data-name="arrow head"><g class="cls-2"><g id="arrow_color" data-name="arrow color"><polygon class="cls-3" points="83.84 72.42 131.54 46.05 179.24 72.42 131.54 98.79 83.84 72.42"/><path class="cls-4" d="M134,69.8l21.86,12.08L134,94,112.14,81.88,134,69.8m0-28.57L60.46,81.88,134,122.53l73.54-40.65L134,41.23Z" transform="translate(-2.46 -9.46)"/></g></g></g><g id="arrow_head-2" data-name="arrow head"><g class="cls-5"><g id="arrow_color-2" data-name="arrow color"><polygon class="cls-3" points="54.18 73.01 107.54 30.92 160.9 73.01 107.54 115.1 54.18 73.01"/><path class="cls-4" d="M110,56.3l33.17,26.17L110,108.64,76.83,82.47,110,56.3m0-31.84-73.54,58,73.54,58,73.54-58L110,24.46Z" transform="translate(-2.46 -9.46)"/></g></g></g><g id="arrow_head-3" data-name="arrow head"><g class="cls-6"><g id="arrow_color-3" data-name="arrow color"><rect class="cls-3" x="36.5" y="43.5" width="79" height="79" transform="translate(-38.89 68.59) rotate(-45)"/><path class="cls-4" d="M76,44.82,114.18,83,76,121.18,37.82,83,76,44.82M76,9.46,2.46,83,76,156.54,149.54,83,76,9.46Z" transform="translate(-2.46 -9.46)"/></g></g></g></svg>