<svg id="arrow-right" xmlns="http://www.w3.org/2000/svg" xmlns:xlink="http://www.w3.org/1999/xlink" width="205.08" height="147.08" viewBox="0 0 205.08 147.08"><defs><style>.cls-1{fill:none;}.cls-2{clip-path:url(#clip-path);}.cls-3{fill:#1b1464;transition:1s;}.cls-4{fill:#1b1464;}.cls-5{clip-path:url(#clip-path-2);}.cls-6{clip-path:url(#clip-path-3);}#arrow-right:hover .cls-3{fill:#FFF;}@media screen and (min-width: 50px) {
    	.cls-3{fill:#2465b2;}
  	}</style><clipPath id="clip-path" transform="translate(73.54 -9.46)"><rect id="clip_mask" data-name="clip mask" class="cls-1" y="36" width="76" height="89"/></clipPath><clipPath id="clip-path-2" transform="translate(73.54 -9.46)"><rect id="clip_mask-2" data-name="clip mask" class="cls-1" x="24" y="17" width="76" height="127"/></clipPath><clipPath id="clip-path-3" transform="translate(73.54 -9.46)"><rect id="clip_mask-3" data-name="clip mask" class="cls-1" x="58" width="76" height="161"/></clipPath></defs><title>arrow-right</title><g id="arrow_head" data-name="arrow head"><g class="cls-2"><g id="arrow_color" data-name="arrow color"><polygon class="cls-3" points="25.84 72.42 73.54 46.05 121.24 72.42 73.54 98.79 25.84 72.42"/><path class="cls-4" d="M0,69.8,21.86,81.88,0,94-21.86,81.88,0,69.8M0,41.23-73.54,81.88,0,122.53,73.54,81.88,0,41.23Z" transform="translate(73.54 -9.46)"/></g></g></g><g id="arrow_head-2" data-name="arrow head"><g class="cls-5"><g id="arrow_color-2" data-name="arrow color"><polygon class="cls-3" points="44.18 73.01 97.54 30.92 150.9 73.01 97.54 115.1 44.18 73.01"/><path class="cls-4" d="M24,56.3,57.17,82.47,24,108.64-9.17,82.47,24,56.3m0-31.84-73.54,58,73.54,58,73.54-58L24,24.46Z" transform="translate(73.54 -9.46)"/></g></g></g><g id="arrow_head-3" data-name="arrow head"><g class="cls-6"><g id="arrow_color-3" data-name="arrow color"><rect class="cls-3" x="18.5" y="43.5" width="79" height="79" transform="translate(31.84 55.86) rotate(-45)"/><path class="cls-4" d="M58,44.82,96.18,83,58,121.18,19.82,83,58,44.82M58,9.46-15.54,83,58,156.54,131.54,83,58,9.46Z" transform="translate(73.54 -9.46)"/></g></g></g></svg>