<svg id="arrow-down" xmlns="http://www.w3.org/2000/svg" xmlns:xlink="http://www.w3.org/1999/xlink" width="98.66" height="172.3" viewBox="0 0 98.66 172.3"><defs><style>.cls-1{fill:none;}.cls-2{clip-path:url(#clip-path);}.cls-3{fill:#2465b2;transition:1s;}.cls-4{fill:#1b1464;}.cls-5{clip-path:url(#clip-path-2);}#arrow-down:hover .cls-3{fill:#FFF}</style><clipPath id="clip-path" transform="translate(-19.35 13.43)"><rect id="clip_mask" data-name="clip mask" class="cls-1" x="22.86" y="76.65" width="88.29" height="78.99" transform="translate(183.14 49.14) rotate(90)"/></clipPath><clipPath id="clip-path-2" transform="translate(-19.35 13.43)"><rect id="clip_mask-2" data-name="clip mask" class="cls-1" x="34.09" y="74.09" width="65.82" height="108" transform="translate(195.09 61.09) rotate(90)"/></clipPath></defs><title>down</title><g id="arrow_base" data-name="arrow base"><g class="cls-2"><g id="arrow_color" data-name="arrow color"><polygon class="cls-3" points="20.4 85.43 48.88 17.99 77.36 85.43 48.88 152.87 20.4 85.43"/><path class="cls-4" d="M68.23,22.56,89.11,72,68.23,121.44,47.35,72,68.23,22.56m0-36L32.15,72l36.08,85.43L104.3,72,68.23-13.43Z" transform="translate(-19.35 13.43)"/></g></g></g><g id="arrow_head" data-name="arrow head"><g class="cls-5"><g id="arrow_color-2" data-name="arrow color"><polygon class="cls-3" points="15.81 108.61 49.33 65.33 82.85 108.61 49.33 151.88 15.81 108.61"/><path class="cls-4" d="M68.68,72.31,86.39,95.18,68.68,118,51,95.18,68.68,72.31m0-40.82L19.35,95.18l49.33,63.69L118,95.18,68.68,31.49Z" transform="translate(-19.35 13.43)"/></g></g></g></svg>