<svg id="arrow" xmlns="http://www.w3.org/2000/svg" xmlns:xlink="http://www.w3.org/1999/xlink" width="133.06" height="98.39" viewBox="0 0 133.06 98.39"><defs><style>.cls-1,.cls-2,.cls-3{transition:1s;fill:none;}.cls-2{stroke:#1b1464;}.cls-2,.cls-3{stroke-miterlimit:10;stroke-width:10px;}.cls-3{stroke:#1b1464;}.cls-4{clip-path:url(#clip-path);}.cls-5{fill:##1b1464;transition:1s;}.cls-6{clip-path:url(#clip-path-2);}.cls-7{fill:#1b1464;transition:1s;}#arrow:hover .cls-5,#arrow:hover .cls-2,#arrow:hover .cls-3,#arrow:hover .cls-7{stroke:#FFF;}@media screen and (min-width: 50px) {
    	.cls-5,.cls-3{stroke:#2465b2;}
  	}</style><clipPath id="clip-path" transform="translate(0 -38.07)"><rect id="clip_mask" data-name="clip mask" class="cls-1" x="109.41" y="105.14" width="24.45" height="33.26"/></clipPath><clipPath id="clip-path-2" transform="translate(0 -38.07)"><rect id="clip_mask-2" data-name="clip mask" class="cls-1" x="109.41" y="37.14" width="24.45" height="33.26"/></clipPath></defs><title>shuffle</title><path id="squiggle" class="cls-2" d="M0,122c25.3,0,50,3,58-34,4.31-19.94,2-34,53-34" transform="translate(0 -38.07)"/><path id="squiggle-2" data-name="squiggle" class="cls-3" d="M0,54.06c25.3,0,50-3,58,34,4.31,19.93,2,34,53,34" transform="translate(0 -38.07)"/><g id="arrow_head" data-name="arrow head"><g class="cls-4"><g id="arrow_color" data-name="arrow color"><polygon class="cls-5" points="95 83.19 109.41 73.94 123.81 83.19 109.41 92.44 95 83.19"/><path d="M109.41,118l5.15,3.31-5.15,3.31-5.15-3.31,5.15-3.31m0-11.88L85.75,121.26l23.66,15.19,23.65-15.19-23.65-15.19Z" transform="translate(0 -38.07)"/></g></g></g><g id="arrow_head-2" data-name="arrow head"><g class="cls-6"><g id="arrow_color-2" data-name="arrow color"><polygon class="cls-7" points="95 15.19 109.41 5.94 123.81 15.19 109.41 24.45 95 15.19"/><path d="M109.41,50l5.15,3.31-5.15,3.31-5.15-3.31L109.41,50m0-11.88L85.75,53.26l23.66,15.19,23.65-15.19L109.41,38.07Z" transform="translate(0 -38.07)"/></g></g></g></svg>