<svg id="arrow-up" xmlns="http://www.w3.org/2000/svg" xmlns:xlink="http://www.w3.org/1999/xlink" width="98.66" height="172.3" viewBox="0 0 98.66 172.3"><defs><style>.cls-1{fill:none;}.cls-2{clip-path:url(#clip-path);}.cls-3{fill:#1b1464;transition:1s;}.cls-4{fill:#1b1464;}.cls-5{clip-path:url(#clip-path-2);}#arrow-up:hover .cls-3{fill:#FFF}@media screen and (min-width: 50px) {
    	.cls-3{fill:#2465b2;}
  	}</style><clipPath id="clip-path" transform="translate(-19.35 -2.13)"><rect id="clip_mask" data-name="clip mask" class="cls-1" x="22.86" y="5.36" width="88.29" height="78.99" transform="translate(22.14 111.86) rotate(-90)"/></clipPath><clipPath id="clip-path-2" transform="translate(-19.35 -2.13)"><rect id="clip_mask-2" data-name="clip mask" class="cls-1" x="34.09" y="-21.09" width="65.82" height="108" transform="translate(34.09 99.91) rotate(-90)"/></clipPath></defs><title>up</title><g id="arrow_base" data-name="arrow base"><g class="cls-2"><g id="arrow_color" data-name="arrow color"><polygon class="cls-3" points="20.4 86.87 48.88 19.43 77.36 86.87 48.88 154.31 20.4 86.87"/><path class="cls-4" d="M68.23,39.56,89.11,89,68.23,138.44,47.35,89,68.23,39.56m0-36L32.15,89l36.08,85.43L104.3,89,68.23,3.57Z" transform="translate(-19.35 -2.13)"/></g></g></g><g id="arrow_head" data-name="arrow head"><g class="cls-5"><g id="arrow_color-2" data-name="arrow color"><polygon class="cls-3" points="15.81 63.69 49.33 20.41 82.85 63.69 49.33 106.97 15.81 63.69"/><path class="cls-4" d="M68.68,43,86.39,65.82,68.68,88.69,51,65.82,68.68,43m0-40.83L19.35,65.82l49.33,63.69L118,65.82,68.68,2.13Z" transform="translate(-19.35 -2.13)"/></g></g></g></svg>